<?xml version="1.0" encoding="iso-8859-1"?>
<!-- Uploaded to: SVG Repo, www.svgrepo.com, Generator: SVG Repo Mixer Tools -->
<svg fill="#000000" height="800px" width="800px" version="1.1" id="Layer_1" xmlns="http://www.w3.org/2000/svg" xmlns:xlink="http://www.w3.org/1999/xlink" 
	 viewBox="0 0 511.999 511.999" xml:space="preserve">
<g>
	<g>
		<path d="M453.356,43.986c-58.647-58.648-154.075-58.648-212.722,0L19.553,265.065c-6.527,6.527-6.527,17.109,0,23.636
			c6.526,6.527,17.109,6.527,23.636,0l221.08-221.08c45.614-45.616,119.836-45.613,165.452,0
			c45.614,45.615,45.614,119.836,0,165.451L208.64,454.154c-32.66,32.659-85.518,32.662-118.179,0
			c-32.66-32.66-32.662-85.518,0-118.179l221.08-221.08c19.593-19.594,51.31-19.598,70.907,0c19.594,19.593,19.598,51.31,0,70.907
			c-0.002,0.002-0.003,0.003-0.006,0.006L161.368,406.881c-6.531,6.531-17.102,6.533-23.636,0c-6.516-6.517-6.516-17.12,0-23.636
			l197.443-197.444c6.527-6.527,6.527-17.109,0-23.636c-6.526-6.527-17.109-6.527-23.636,0L114.097,359.61
			c-19.549,19.549-19.549,51.358,0,70.907c19.594,19.594,51.31,19.598,70.907,0l221.074-221.074
			c0.002-0.002,0.003-0.003,0.006-0.006c32.657-32.656,32.663-85.518,0-118.179c-32.657-32.659-85.519-32.663-118.179,0
			L66.825,312.337c-45.724,45.723-45.727,119.725,0,165.451c45.612,45.613,119.835,45.617,165.451,0l221.08-221.08
			C512.004,198.061,512.003,102.634,453.356,43.986z"/>
	</g>
</g>
</svg>